<svg width="1016" height="595" viewBox="0 0 1016 595" fill="none" xmlns="http://www.w3.org/2000/svg">
<path fill-rule="evenodd" clip-rule="evenodd" d="M470.888 92.8198L444.864 0.247925L384.031 74.7197L377.644 82.5378L410.882 109.688L374.619 119.882L377.087 128.661L419.509 116.736L454.018 144.925L386.959 163.777L398.143 203.562L326.553 145.083L288.235 191.991L365.681 255.254L400.643 212.454L401.766 216.45L498.034 189.388L483.227 136.714L456.338 144.273L461.476 137.983L431.381 113.398L473.356 101.599L470.888 92.8198ZM327.363 302.163L340.136 286.526L262.69 223.264L249.917 238.9L327.363 302.163ZM1008.81 317.889L1015.67 311.907L949.99 236.502L943.123 242.484L1008.81 317.889ZM421.509 286.681L426.445 304.239L522.713 277.176L517.777 259.619L421.509 286.681ZM912.671 401.627L953.871 365.739L888.189 290.334L846.989 326.222L912.671 401.627ZM237.954 411.616L276.272 364.707L198.826 301.445L160.508 348.353L237.954 411.616ZM436.316 339.354L451.124 392.028L547.392 364.965L532.585 312.292L436.316 339.354ZM871.47 437.515L885.204 425.552L819.522 350.147L805.789 362.11L871.47 437.515ZM199.636 458.525L212.408 442.889L134.963 379.626L122.19 395.262L199.636 458.525ZM775.336 521.253L816.536 485.366L750.855 409.961L709.654 445.849L775.336 521.253ZM470.867 462.259L475.802 479.817L572.071 452.754L567.135 435.196L470.867 462.259ZM110.227 567.978L148.545 521.07L71.0993 457.807L32.7812 504.715L110.227 567.978ZM734.135 557.141L747.869 545.179L682.187 469.774L668.454 481.737L734.135 557.141ZM485.674 514.932L500.481 567.605L596.75 540.543L581.942 487.87L485.674 514.932ZM670.196 594.653H597.735L572.319 565.475L613.52 529.587L670.196 594.653ZM63.0958 594.653L0.849426 543.806L7.23578 535.988L79.0529 594.653H63.0958ZM538.822 594.653H549.428L544.852 589.4L538.822 594.653Z" fill="#4ECDC4"/>
</svg>
