<svg width="48" height="48" viewBox="0 0 48 48" fill="none" xmlns="http://www.w3.org/2000/svg">
<path d="M41.7697 19.6553C46.7782 14.6483 48.0322 7.11903 44.4547 3.54528C40.8787 -0.0322165 33.3525 1.22178 28.3447 6.22878C24.2362 10.3395 23.3115 15.6458 25.8045 19.5105L24.483 20.832C24.249 21.0674 24.0811 21.3602 23.9961 21.6811C23.911 22.0019 23.9119 22.3394 23.9985 22.6598L14.9865 31.6688L11.1277 34.188C11.1277 34.188 7.76999 37.5443 3.74324 41.5725C3.37874 41.9355 1.91774 42.513 1.91774 42.513C1.44449 42.7343 1.35974 43.2173 1.72874 43.5855L4.41374 46.2705C4.78274 46.6395 5.26499 46.5563 5.48624 46.083C5.48624 46.083 6.06374 44.6213 6.42674 44.2575L13.8127 36.873L16.329 33.0135L25.341 24.0015C25.6613 24.0882 25.9987 24.0891 26.3194 24.0041C26.6401 23.919 26.9328 23.7511 27.168 23.517L28.4895 22.1963C32.3557 24.69 37.6612 23.766 41.7697 19.6553ZM30.0367 7.24878L31.0312 8.24253L29.688 9.58578L28.74 8.63703C29.0332 8.27478 29.3422 7.91703 29.688 7.57128C29.8005 7.45953 29.9212 7.35753 30.0367 7.24878ZM38.2905 3.41928L39.0855 4.21428L37.743 5.55753L36.3997 4.21428L37.0395 3.57603C37.453 3.49882 37.8707 3.44647 38.2905 3.41928ZM35.0595 12.2708L33.7162 13.6125L32.373 12.2693L33.7147 10.929L35.0595 12.2708ZM34.3875 10.257L35.7307 8.91378L37.071 10.257L35.7307 11.6003L34.3875 10.257ZM33.0457 14.2838L31.7025 15.627L30.3592 14.2853L31.7025 12.942L33.0457 14.2838ZM33.0457 18.312L31.7025 19.6538L30.3592 18.3135L31.7025 16.9688L33.0457 18.312ZM32.373 16.2975L33.7162 14.9558L35.0595 16.2975L33.7162 17.6393L32.373 16.2975ZM35.7307 16.9688L37.071 18.3135L35.7292 19.6553L34.386 18.3135L35.7307 16.9688ZM35.7292 15.627L34.3875 14.2838L35.7307 12.942L37.071 14.2853L35.7292 15.627ZM36.3997 12.2708L37.743 10.929L39.0847 12.2708L37.743 13.6125L36.3997 12.2708ZM38.4142 10.257L39.7575 8.91378L41.0992 10.257L39.7575 11.6003L38.4142 10.257ZM41.7712 10.9275L43.113 12.2708L41.7712 13.6125L40.4295 12.2693L41.7712 10.9275ZM42.4425 10.257L43.7857 8.91378L44.5815 9.70953C44.5544 10.1298 44.5018 10.5481 44.424 10.962L43.7857 11.6003L42.4425 10.257ZM41.7712 9.58578L40.4295 8.24103L41.7712 6.89928L43.113 8.24103L41.7712 9.58578ZM39.7575 7.57203L38.4142 6.22878L39.7575 4.88553L41.0992 6.22878L39.7575 7.57203ZM39.0847 8.24253L37.743 9.58578L36.3997 8.24253L37.743 6.90078L39.0847 8.24253ZM35.7307 7.57203L34.3875 6.22878L35.7307 4.88703L37.071 6.22878L35.7307 7.57203ZM35.0595 8.24253L33.7162 9.58578L32.373 8.24103L33.7162 6.89928L35.0595 8.24253ZM33.0457 10.257L31.7025 11.5988L30.3607 10.257L31.7025 8.91378L33.0457 10.257ZM31.0312 12.2708L29.688 13.6125L28.3447 12.2708L29.688 10.929L31.0312 12.2708ZM29.0167 14.2838L27.675 15.6255L26.367 14.3198L26.3715 14.2463L27.675 12.942L29.0167 14.2838ZM29.688 14.9558L31.0312 16.2975L29.688 17.6408L28.3447 16.2975L29.688 14.9558ZM31.0312 20.3265L30.3225 21.0353C29.7336 20.761 29.1875 20.4031 28.701 19.9725L29.688 18.9848L31.0312 20.3265ZM31.7025 20.9985L32.2957 21.5903C31.9631 21.5472 31.634 21.48 31.311 21.3893L31.7025 20.9985ZM33.681 21.6345L32.373 20.3265L33.7162 18.9833L35.0595 20.3265L33.756 21.63L33.681 21.6345ZM35.7307 20.997L35.9257 21.192C35.7412 21.2543 35.556 21.3075 35.3707 21.3578L35.7307 20.997ZM36.4012 20.3265L37.743 18.9848L38.5957 19.836C38.0355 20.2223 37.4632 20.547 36.885 20.811L36.4012 20.3265ZM36.4012 16.2975L37.743 14.9558L39.0847 16.2975L37.743 17.6408L36.4012 16.2975ZM38.4157 14.2838L39.7575 12.942L41.1007 14.2838L39.7575 15.627L38.4157 14.2838ZM41.7712 14.9558L42.513 15.6975C42.1755 16.2323 41.7945 16.7505 41.382 17.2508L40.4287 16.2975L41.7712 14.9558ZM42.441 14.2853L43.7857 12.942L43.8502 13.0065C43.62 13.626 43.3402 14.2448 43.0102 14.853L42.441 14.2853ZM44.4547 8.24253L44.5515 8.14653C44.5597 8.22153 44.5747 8.29278 44.5815 8.36853L44.4547 8.24253ZM43.7857 7.57203L42.4425 6.22878L43.4212 5.24928C43.8322 5.76078 44.1345 6.35928 44.3295 7.02828L43.7857 7.57203ZM41.7712 5.55753L40.4295 4.21428L40.9732 3.67053C41.6415 3.86553 42.24 4.16778 42.7507 4.57803L41.7712 5.55753ZM39.7575 3.54378L39.6322 3.41853C39.708 3.42453 39.7785 3.44028 39.8527 3.44928L39.7575 3.54378ZM35.0595 4.21428L33.7162 5.55753L33.1485 4.98978C33.756 4.65978 34.3755 4.38003 34.995 4.14903L35.0595 4.21428ZM33.0457 6.22878L31.7025 7.57203L30.7492 6.61878C31.2425 6.20872 31.7616 5.83069 32.3032 5.48703L33.0457 6.22878ZM29.0167 10.257L27.675 11.6003L27.1905 11.1158C27.4545 10.5375 27.7785 9.96453 28.1655 9.40428L29.0167 10.257ZM27.003 12.2708L26.6437 12.63C26.6925 12.4448 26.7465 12.261 26.8087 12.0758L27.003 12.2708ZM27.003 16.2975L26.6122 16.689C26.5218 16.3665 26.4547 16.0379 26.4112 15.7058L27.003 16.2975ZM27.675 16.9688L29.0167 18.312L28.0297 19.3013C27.5987 18.8146 27.2403 18.2682 26.9655 17.679L27.675 16.9688ZM39.3645 19.2608L38.415 18.312L39.7567 16.9688L40.7512 17.9648C40.6432 18.0803 40.542 18.1995 40.4287 18.312C40.0837 18.6578 39.7267 18.9675 39.3645 19.2608Z" fill="#4ECDC4"/>
<path d="M29.508 29.508C28.8149 30.2018 28.4256 31.1423 28.4256 32.1229C28.4256 33.1035 28.8149 34.0441 29.508 34.7378L34.7363 29.508C34.0428 28.8151 33.1025 28.4258 32.1221 28.4258C31.1417 28.4258 30.2015 28.8151 29.508 29.508Z" fill="#4ECDC4"/>
<path d="M37.3507 32.121L36.0442 30.816L30.8145 36.0443L32.121 37.3508L36.0427 46.5L37.3507 45.1935L36.567 43.365L37.875 42.057L38.9843 43.56L40.2922 42.252L39.1823 40.7505L40.4902 39.4425L41.9258 40.6185L43.2323 39.312L41.7968 38.136L43.3657 36.567L45.1942 37.3508L46.5 36.0443L37.3507 32.121ZM37.875 34.2143L37.4812 34.608L36.0427 33.429L37.875 34.2143ZM34.2142 37.8765L33.429 36.0443L34.5405 37.5488L34.2142 37.8765ZM36.174 35.9153L35.847 36.2423L34.7355 34.7363L36.174 35.9153ZM35.7817 41.5343L34.9995 39.7073L35.6527 39.054L36.762 40.554L35.7817 41.5343ZM38.07 39.246L36.9607 37.746L37.6155 37.0913L39.0495 38.2658L38.07 39.246ZM40.3567 36.9593L38.9227 35.7848L39.708 34.9995L41.5335 35.7818L40.3567 36.9593Z" fill="#4ECDC4"/>
</svg>
