<svg width="64" height="64" viewBox="0 0 64 64" fill="none" xmlns="http://www.w3.org/2000/svg">
<path d="M24 39.9999L16.0853 47.9146C15.2044 48.7953 14.0822 49.395 12.8605 49.638C11.6388 49.8809 10.3725 49.7562 9.22172 49.2795C8.07091 48.8029 7.08727 47.9957 6.39515 46.9601C5.70303 45.9245 5.33351 44.7069 5.33331 43.4613V39.9999L8.95198 21.9093C9.4353 19.4912 10.7415 17.3153 12.6483 15.7517C14.5551 14.1881 16.9447 13.3335 19.4106 13.3333H44.5893C47.0552 13.3335 49.4449 14.1881 51.3517 15.7517C53.2585 17.3153 54.5647 19.4912 55.048 21.9093L58.6666 39.9999V43.4586C58.6665 44.7042 58.2969 45.9218 57.6048 46.9574C56.9127 47.993 55.929 48.8002 54.7782 49.2769C53.6274 49.7535 52.3611 49.8782 51.1394 49.6353C49.9178 49.3923 48.7955 48.7926 47.9146 47.9119L40 39.9999H24Z" stroke="white" stroke-width="2" stroke-linecap="round" stroke-linejoin="round"/>
<path d="M24 13.3333L26.6667 18.6666H37.3333L40 13.3333" stroke="white" stroke-width="2" stroke-linecap="round" stroke-linejoin="round"/>
</svg>
