<svg width="54" height="54" viewBox="0 0 54 54" fill="none" xmlns="http://www.w3.org/2000/svg">
<path d="M43.3645 10.279C38.8579 5.89148 32.8936 3.375 27 3.375C21.1064 3.375 15.1421 5.89148 10.6355 10.279C5.95371 14.8363 3.375 20.7773 3.375 27C3.375 29.8129 4.29785 33.4431 6.84281 40.2416C9.38777 47.0401 14.4492 49.8867 16.5871 50.3518C17.1998 50.4858 17.9181 50.625 18.5625 50.625C19.6729 50.6259 20.7641 50.335 21.7266 49.7812L23.2031 48.9375C24.7925 48.0073 25.2566 45.9707 24.3422 44.3654L15.1748 28.2741C14.9564 27.889 14.6637 27.5511 14.3138 27.28C13.9638 27.0089 13.5636 26.8098 13.1362 26.6945C12.7088 26.5791 12.2627 26.5497 11.8239 26.6079C11.385 26.6662 10.9621 26.8109 10.5796 27.0338L9.1357 27.8775C8.58076 28.2026 8.08212 28.6154 7.65914 29.0999C7.60664 29.1615 7.53753 29.2067 7.46004 29.2301C7.38256 29.2535 7.29998 29.2541 7.22215 29.2319C7.14432 29.2097 7.07454 29.1655 7.02111 29.1047C6.96769 29.0439 6.93289 28.969 6.92086 28.8889C6.81455 28.2647 6.75742 27.6332 6.75 27C6.75 21.6939 8.96484 16.6134 12.9895 12.6974C16.875 8.91738 21.9786 6.75 27 6.75C32.0214 6.75 37.125 8.91738 41.0105 12.6974C45.0352 16.6134 47.25 21.6939 47.25 27C47.2405 27.6333 47.1812 28.2649 47.0728 28.8889C47.0608 28.969 47.026 29.0439 46.9726 29.1047C46.9191 29.1655 46.8493 29.2097 46.7715 29.2319C46.6937 29.2541 46.6111 29.2535 46.5336 29.2301C46.4561 29.2067 46.387 29.1615 46.3345 29.0999C45.9115 28.6154 45.4129 28.2026 44.858 27.8775L43.4141 27.0338C43.0316 26.8109 42.6086 26.6662 42.1698 26.6079C41.7309 26.5497 41.2849 26.5791 40.8575 26.6945C40.4301 26.8098 40.0298 27.0089 39.6799 27.28C39.3299 27.5511 39.0373 27.889 38.8188 28.2741L29.6578 44.3654C28.7434 45.9707 29.2075 48.0073 30.7969 48.9375L32.2734 49.7812C33.2359 50.335 34.3271 50.6259 35.4375 50.625C36.0819 50.625 36.8002 50.4858 37.4129 50.3518C39.5508 49.8867 44.6133 47.0391 47.1572 40.2416C49.7011 33.4441 50.625 29.8129 50.625 27C50.625 20.7773 48.0463 14.8363 43.3645 10.279Z" fill="#4ECDC4"/>
</svg>
