<svg width="34" height="40" viewBox="0 0 34 40" fill="none" xmlns="http://www.w3.org/2000/svg">
<g clip-path="url(#clip0_26_45)">
<path d="M18.0623 11.5179C16.6752 12.3215 14.7457 13.4413 12.2739 14.8773C9.80211 16.3133 7.87264 17.4405 6.48549 18.259C4.77368 17.7233 3.34226 16.756 2.19121 15.3572L1.94772 15.5135C1.77064 15.6176 1.5788 15.6437 1.3722 15.5916C1.16561 15.5395 1.00328 15.4242 0.885224 15.2456L0.154756 13.9733C0.051457 13.7947 0.0293215 13.5938 0.0883493 13.3706C0.147377 13.1474 0.265433 12.9763 0.442516 12.8572L0.686006 12.7233C-0.0961125 10.6697 -0.114559 8.58265 0.630667 6.46211C1.37589 4.34158 2.71509 2.72327 4.64825 1.6072C6.61092 0.47625 8.67689 0.111667 10.8462 0.513453C13.0154 0.915238 14.7936 1.97179 16.1808 3.6831L16.4243 3.52685C16.6309 3.42268 16.8375 3.40408 17.0441 3.47104C17.2507 3.53801 17.413 3.66077 17.5311 3.83935L18.2394 5.11167C18.3427 5.29024 18.3685 5.48369 18.3169 5.69203C18.2652 5.90036 18.1509 6.06405 17.9738 6.1831L17.686 6.33935C18.3058 7.99113 18.4312 9.71732 18.0623 11.5179ZM23.6626 36.7188C24.2086 37.7754 24.8911 38.5864 25.7101 39.1519C26.5291 39.7173 27.4108 40.0001 28.3553 40.0001C30.0081 40.0001 31.3694 39.4532 32.4393 38.3594C33.5091 37.2657 34.0367 35.9078 34.0219 34.2858C34.0219 33.7649 33.9814 33.2441 33.9002 32.7233C33.819 32.2024 33.7342 31.7635 33.6456 31.4063C33.5571 31.0492 33.4206 30.6437 33.2361 30.1898C33.0517 29.7359 32.9152 29.416 32.8266 29.23C32.7381 29.044 32.5905 28.7538 32.3839 28.3594C32.1773 27.9651 32.0667 27.7456 32.0519 27.701C31.7272 27.076 31.3915 26.6519 31.0447 26.4286C30.6979 26.2054 30.4139 26.1533 30.1925 26.2724C30.045 26.3468 29.9417 26.4882 29.8826 26.6965C29.8236 26.9048 29.831 27.1764 29.9048 27.5112C29.9785 27.846 30.1187 28.1995 30.3253 28.5715C30.7533 29.3155 31.1775 30.294 31.5981 31.5068C32.0187 32.7196 32.229 33.7054 32.229 34.4644C32.229 35.4316 31.8269 36.2724 31.0226 36.9867C30.2183 37.701 29.2924 38.0581 28.2446 38.0581C27.3887 38.0581 26.4738 37.2545 25.4998 35.6474L25.6769 35.5358C26.0753 35.2977 26.3705 35.0782 26.5623 34.8773C26.7542 34.6764 26.8722 34.4123 26.9165 34.0849C26.9608 33.7575 26.8722 33.3855 26.6509 32.9688L18.2837 13.6608L14.6756 15.759L16.5128 18.951C16.6014 19.0998 16.6198 19.2672 16.5682 19.4532C16.5165 19.6392 16.4169 19.7769 16.2693 19.8661L15.4061 20.3572L14.5428 20.8483C14.3805 20.9524 14.2144 20.9785 14.0447 20.9264C13.875 20.8743 13.7385 20.7664 13.6352 20.6027L11.8201 17.4331L8.21205 19.5313L20.6079 36.4956C21.0211 37.0462 21.4417 37.3475 21.8696 37.3996C22.2976 37.4517 22.7772 37.2992 23.3084 36.942L23.6626 36.7188Z" fill="#4ECDC4"/>
</g>
<defs>
<clipPath id="clip0_26_45">
<rect width="34" height="40" fill="white"/>
</clipPath>
</defs>
</svg>
