<svg width="40" height="40" viewBox="0 0 40 40" fill="none" xmlns="http://www.w3.org/2000/svg">
<path d="M6.66667 3.33337C6.22464 3.33337 5.80072 3.50897 5.48816 3.82153C5.17559 4.13409 5 4.55801 5 5.00004C5 5.44207 5.17559 5.86599 5.48816 6.17855C5.80072 6.49111 6.22464 6.66671 6.66667 6.66671C7.99275 6.66671 9.26452 7.19349 10.2022 8.13117C11.1399 9.06886 11.6667 10.3406 11.6667 11.6667V25.8334C11.6667 31.8334 16.5 36.6667 22.5 36.6667C28.5 36.6667 33.3333 31.8334 33.3333 25.8334V21.6667C33.7754 21.6667 34.1993 21.4911 34.5118 21.1786C34.8244 20.866 35 20.4421 35 20C35 19.558 34.8244 19.1341 34.5118 18.8215C34.1993 18.509 33.7754 18.3334 33.3333 18.3334H23.3333C22.8913 18.3334 22.4674 18.509 22.1548 18.8215C21.8423 19.1341 21.6667 19.558 21.6667 20C21.6667 20.4421 21.8423 20.866 22.1548 21.1786C22.4674 21.4911 22.8913 21.6667 23.3333 21.6667V25C23.3333 25.4421 23.1577 25.866 22.8452 26.1786C22.5326 26.4911 22.1087 26.6667 21.6667 26.6667C21.2246 26.6667 20.8007 26.4911 20.4882 26.1786C20.1756 25.866 20 25.4421 20 25V18.3334C20.442 18.3334 20.8659 18.1578 21.1785 17.8452C21.4911 17.5327 21.6667 17.1087 21.6667 16.6667C21.6667 16.2247 21.4911 15.8008 21.1785 15.4882C20.8659 15.1756 20.442 15 20 15V13.3334C20.442 13.3334 20.8659 13.1578 21.1785 12.8452C21.4911 12.5327 21.6667 12.1087 21.6667 11.6667C21.6667 11.2247 21.4911 10.8008 21.1785 10.4882C20.8659 10.1756 20.442 10 20 10V9.16671C20 7.61961 19.3854 6.13588 18.2915 5.04192C17.1975 3.94796 15.7138 3.33337 14.1667 3.33337H6.66667Z" fill="#4ECDC4"/>
</svg>
