<svg width="68" height="43" viewBox="0 0 68 43" fill="none" xmlns="http://www.w3.org/2000/svg">
<path d="M36.472 21.264C37.208 21.264 37.736 21.424 38.056 21.744C38.408 22.064 38.584 22.48 38.584 22.992C38.584 23.824 38.328 24.56 37.816 25.2C37.336 25.84 36.568 26.176 35.512 26.208C32.952 26.272 30.68 26.08 28.696 25.632C26.424 30.4 23.672 34.368 20.44 37.536C17.24 40.672 14.024 42.24 10.792 42.24C7.464 42.24 4.984 40.304 3.352 36.432C1.72 32.56 0.904 27.328 0.904 20.736C0.904 15.104 1.304 10.048 2.104 5.568C2.392 3.904 2.792 2.784 3.304 2.208C3.848 1.6 4.76 1.296 6.04 1.296C8.152 1.296 9.208 2.208 9.208 4.032C9.208 4.224 9.176 4.576 9.112 5.088C8.152 10.848 7.672 16.064 7.672 20.736C7.672 25.632 8.072 29.36 8.872 31.92C9.704 34.448 10.936 35.712 12.568 35.712C14.232 35.712 16.04 34.56 17.992 32.256C19.944 29.952 21.736 27.056 23.368 23.568C21.416 22.352 19.944 20.784 18.952 18.864C17.96 16.912 17.464 14.672 17.464 12.144C17.464 9.616 17.848 7.488 18.616 5.76C19.416 4 20.488 2.688 21.832 1.824C23.208 0.959999 24.728 0.527999 26.392 0.527999C28.44 0.527999 30.056 1.264 31.24 2.736C32.456 4.208 33.064 6.224 33.064 8.784C33.064 12.464 32.264 16.48 30.664 20.832C32.36 21.12 34.296 21.264 36.472 21.264ZM22.312 11.808C22.312 14.944 23.32 17.264 25.336 18.768C26.584 15.184 27.208 12.224 27.208 9.888C27.208 8.544 27.032 7.568 26.68 6.96C26.328 6.32 25.848 6 25.24 6C24.376 6 23.672 6.512 23.128 7.536C22.584 8.528 22.312 9.952 22.312 11.808ZM40.2014 16.464C38.8574 16.464 37.8494 16.16 37.1774 15.552C36.5054 14.912 36.1694 14.032 36.1694 12.912C36.1694 11.792 36.6014 10.864 37.4654 10.128C38.3614 9.36 39.4654 8.976 40.7774 8.976C41.9614 8.976 42.9214 9.264 43.6574 9.84C44.3934 10.416 44.7614 11.232 44.7614 12.288C44.7614 13.568 44.3454 14.592 43.5134 15.36C42.6814 16.096 41.5774 16.464 40.2014 16.464ZM39.8174 42.24C37.7374 42.24 36.2174 41.504 35.2574 40.032C34.3294 38.56 33.8654 36.608 33.8654 34.176C33.8654 32.736 34.0414 30.896 34.3934 28.656C34.7774 26.384 35.2574 24.272 35.8334 22.32C36.1214 21.296 36.5054 20.592 36.9854 20.208C37.4654 19.824 38.2334 19.632 39.2894 19.632C40.9214 19.632 41.7374 20.176 41.7374 21.264C41.7374 22.064 41.4334 23.92 40.8254 26.832C40.0574 30.352 39.6734 32.736 39.6734 33.984C39.6734 34.944 39.8014 35.68 40.0574 36.192C40.3134 36.704 40.7454 36.96 41.3534 36.96C41.9294 36.96 42.6494 36.56 43.5134 35.76C44.3774 34.96 45.5294 33.696 46.9694 31.968C47.3534 31.52 47.7854 31.296 48.2654 31.296C48.6814 31.296 49.0014 31.488 49.2254 31.872C49.4814 32.256 49.6094 32.784 49.6094 33.456C49.6094 34.736 49.3054 35.728 48.6974 36.432C45.5294 40.304 42.5694 42.24 39.8174 42.24ZM65.1179 26.208C65.8219 26.208 66.4139 26.464 66.8939 26.976C67.4059 27.456 67.6619 28.064 67.6619 28.8C67.6619 29.216 67.5659 29.664 67.3739 30.144C66.8619 31.328 66.1419 32.32 65.2139 33.12C64.2859 33.92 63.2619 34.32 62.1419 34.32C61.2459 34.32 60.4779 34 59.8379 33.36C59.2299 32.72 58.9259 31.856 58.9259 30.768C58.9259 30.16 58.9579 29.504 59.0219 28.8C59.0859 28.288 59.1179 27.936 59.1179 27.744C59.1179 27.488 59.0539 27.296 58.9259 27.168C58.8299 27.04 58.7019 26.976 58.5419 26.976C58.0939 26.976 57.4859 27.52 56.7179 28.608C55.9499 29.664 55.1819 31.072 54.4139 32.832C53.6459 34.592 53.0219 36.448 52.5419 38.4C52.1899 39.936 51.7899 40.96 51.3419 41.472C50.8939 41.984 50.1579 42.24 49.1339 42.24C47.9179 42.24 47.0539 41.6 46.5419 40.32C46.0619 39.04 45.8219 36.992 45.8219 34.176C45.8219 30.016 46.4139 26.064 47.5979 22.32C47.8859 21.392 48.3499 20.72 48.9899 20.304C49.6619 19.856 50.5899 19.632 51.7739 19.632C52.4139 19.632 52.8619 19.712 53.1179 19.872C53.3739 20.032 53.5019 20.336 53.5019 20.784C53.5019 21.296 53.2619 22.448 52.7819 24.24C52.4619 25.52 52.2059 26.64 52.0139 27.6C51.8219 28.56 51.6619 29.744 51.5339 31.152C52.5899 28.4 53.7739 26.16 55.0859 24.432C56.3979 22.704 57.6779 21.472 58.9259 20.736C60.1739 20 61.3099 19.632 62.3339 19.632C63.2619 19.632 63.9659 19.904 64.4459 20.448C64.9579 20.96 65.2139 21.728 65.2139 22.752C65.2139 23.36 65.0379 24.512 64.6859 26.208H65.1179Z" fill="#191E3F"/>
</svg>
